<svg width="75px" height="100px" xmlns="http://www.w3.org/2000/svg" xmlns:xlink="http://www.w3.org/1999/xlink">
<g style="">  <rect x="0.000000" y="0.000000" width="75.000000" height="100.000000" style="fill: rgba(255, 255, 255, 1.000000); stroke-width: 2.000000px; stroke: rgba(0, 0, 0, 1.000000); " fill="#feffff" stroke="#000000" stroke-width="2.000000"  />
  <path d="M16.163846,11.890769 L16.163846,16.001538 L17.874615,16.001538 L17.874615,18.918462 L16.163846,18.918462 L16.163846,22.500000 L12.434615,22.500000 L12.410000,18.918462 L5.345385,18.918462 L5.345385,16.333846 L10.083846,5.010769 L13.394615,6.229231 L9.357692,16.001538 L12.422308,16.001538 L12.877692,11.890769 Z " style="fill: none; " fill="none" stroke="none" />
  <path d="M18.500000,42.400000 L24.965638,46.899187 L22.684649,39.359675 L28.961621,34.600813 L21.086255,34.440325 L18.499999,27.000000 L15.913744,34.440325 L8.038379,34.600812 L14.315351,39.359675 L12.034362,46.899186 L18.500000,42.400000 Z " style="fill: rgba(255, 38, 0, 1.000000); " fill="#ff2600" stroke="none" />
  <path d="M46.750000,42.900000 L53.215638,47.399187 L50.934649,39.859675 L57.211621,35.100813 L49.336255,34.940325 L46.749999,27.500000 L44.163744,34.940325 L36.288379,35.100812 L42.565351,39.859675 L40.284362,47.399186 L46.750000,42.900000 Z " style="fill: rgba(255, 38, 0, 1.000000); " fill="#ff2600" stroke="none" />
  <path d="M19.000000,70.150000 L25.465638,74.649187 L23.184649,67.109675 L29.461621,62.350813 L21.586255,62.190325 L18.999999,54.750000 L16.413744,62.190325 L8.538379,62.350812 L14.815351,67.109675 L12.534362,74.649186 L19.000000,70.150000 Z " style="fill: rgba(255, 38, 0, 1.000000); " fill="#ff2600" stroke="none" />
  <path d="M47.000000,69.900000 L53.465638,74.399187 L51.184649,66.859675 L57.461621,62.100813 L49.586255,61.940325 L46.999999,54.500000 L44.413744,61.940325 L36.538379,62.100812 L42.815351,66.859675 L40.534362,74.399186 L47.000000,69.900000 Z " style="fill: rgba(255, 38, 0, 1.000000); " fill="#ff2600" stroke="none" />
</g></svg>